<?xml version="1.0" encoding="UTF-8" standalone="no"?>
<!-- Generator: Adobe Illustrator 24.3.0, SVG Export Plug-In . SVG Version: 6.00 Build 0)  -->

<svg
   version="1.1"
   id="Layer_1"
   x="0px"
   y="0px"
   viewBox="0 0 80 80"
   enable-background="new 0 0 80 80"
   xml:space="preserve"
   sodipodi:docname="reshot-icon-medal-VU84RJ3BH9.svg"
   inkscape:version="1.1.2 (b8e25be833, 2022-02-05)"
   xmlns:inkscape="http://www.inkscape.org/namespaces/inkscape"
   xmlns:sodipodi="http://sodipodi.sourceforge.net/DTD/sodipodi-0.dtd"
   xmlns="http://www.w3.org/2000/svg"
   xmlns:svg="http://www.w3.org/2000/svg"><defs
   id="defs864" /><sodipodi:namedview
   id="namedview862"
   pagecolor="#ffffff"
   bordercolor="#666666"
   borderopacity="1.0"
   inkscape:pageshadow="2"
   inkscape:pageopacity="0.0"
   inkscape:pagecheckerboard="0"
   showgrid="false"
   inkscape:zoom="11.313709"
   inkscape:cx="49.409086"
   inkscape:cy="53.828504"
   inkscape:window-width="3840"
   inkscape:window-height="2126"
   inkscape:window-x="-11"
   inkscape:window-y="-11"
   inkscape:window-maximized="1"
   inkscape:current-layer="g859" />
<g
   id="g859">
	<path
   id="polygon845"
   style="fill:#525c6b"
   d="M 40,18.996 H 33 L 49,0 h 7 z"
   sodipodi:nodetypes="ccccc" />
	<path
   id="polygon847"
   style="fill:#7a8e9b"
   d="m 56,0 h 7 L 47,18.996 h -7 z"
   sodipodi:nodetypes="ccccc" />
	
		<path
   id="ellipse849"
   style="fill:#ffbd66;stroke-width:1.49999"
   d="m 52.463764,30.033146 c 6.884096,6.884096 6.884096,18.045422 0,24.929518 -6.884096,6.884096 -18.045422,6.884096 -24.929518,0 -6.884096,-6.884096 -6.884096,-18.045422 0,-24.929518 6.884096,-6.884096 18.045422,-6.884096 24.929518,0 z"
   sodipodi:nodetypes="sssss" />
	<path
   fill="#fddc85"
   d="m 42.25,23.892 v -6.147 h -4.5 v 6.147 c -9.294,1.113 -16.503,9.012 -16.503,18.606 0,10.356 8.3955,18.753 18.753,18.753 10.3575,0 18.753,-8.397 18.753,-18.753 0,-9.594 -7.209,-17.493 -16.503,-18.606 z M 40,59.001 c -9.099,0 -16.503,-7.404 -16.503,-16.503 0,-9.099 7.404,-16.503 16.503,-16.503 9.099,0 16.503,7.404 16.503,16.503 0,9.099 -7.404,16.503 -16.503,16.503 z"
   id="path851"
   style="stroke-width:1.5"
   sodipodi:nodetypes="ccccssscsssss" />
	<path
   id="polygon853"
   style="fill:#79ccb8"
   d="m 40,18.996 h 7 L 31,0 h -7 z"
   sodipodi:nodetypes="ccccc" />
	<path
   id="polygon855"
   style="fill:#3daa9d"
   d="m 24,0 h -7 l 16,18.996 h 7 z"
   sodipodi:nodetypes="ccccc" />
	<path
   fill="#fddc85"
   d="m 40.0015,54.873 c -0.927,0 -1.8165,-0.393 -2.4405,-1.0785 -0.279,-0.3015 -0.7095,-0.4185 -1.0965,-0.2925 -0.8835,0.279 -1.8495,0.1755 -2.652,-0.2865 -0.8025,-0.4635 -1.377,-1.248 -1.575,-2.154 -0.0885,-0.402 -0.4035,-0.7155 -0.801,-0.8025 -0.906,-0.1965 -1.692,-0.771 -2.1555,-1.5735 -0.4635,-0.8025 -0.567,-1.77 -0.285,-2.655 0.1245,-0.387 0.009,-0.8175 -0.2925,-1.0935 -0.6855,-0.624 -1.0785,-1.515 -1.0785,-2.4405 0,-0.9285 0.393,-1.8165 1.0785,-2.4405 0.3015,-0.276 0.417,-0.7065 0.2925,-1.0965 -0.282,-0.882 -0.177,-1.848 0.285,-2.6505 0.4635,-0.8025 1.248,-1.377 2.1555,-1.5765 0.399,-0.0855 0.714,-0.402 0.801,-0.7995 0.198,-0.906 0.7725,-1.6905 1.575,-2.154 0.8025,-0.4635 1.7685,-0.5715 2.652,-0.2865 0.39,0.123 0.8205,0.009 1.095,-0.2925 1.2495,-1.371 3.6375,-1.368 4.881,0 0.2775,0.3015 0.708,0.4185 1.095,0.2925 0.885,-0.279 1.848,-0.1755 2.6535,0.2865 0.801,0.4635 1.3755,1.248 1.5735,2.154 0.0885,0.399 0.402,0.714 0.8025,0.7995 0.906,0.1995 1.6905,0.774 2.154,1.5765 0.4635,0.8025 0.567,1.77 0.285,2.6505 -0.1245,0.39 -0.009,0.8205 0.2925,1.0965 0.6855,0.624 1.0785,1.512 1.0785,2.4405 0,0.9255 -0.393,1.8165 -1.0785,2.4405 -0.3015,0.276 -0.417,0.7065 -0.2925,1.095 0.282,0.882 0.177,1.848 -0.285,2.652 -0.4635,0.8025 -1.248,1.377 -2.154,1.5735 -0.4005,0.0885 -0.7155,0.4035 -0.8025,0.8025 -0.198,0.906 -0.7725,1.6905 -1.5735,2.154 -0.804,0.465 -1.7685,0.5685 -2.6535,0.2865 -0.387,-0.126 -0.819,-0.009 -1.095,0.2925 -0.6225,0.687 -1.512,1.08 -2.439,1.08 z M 36.778,51.2025 c 0.915,0 1.8105,0.381 2.4465,1.0785 0.4005,0.4425 1.152,0.4425 1.5525,0 0.864,-0.9495 2.214,-1.3125 3.4425,-0.9225 0.2805,0.0915 0.582,0.0585 0.8445,-0.0915 0.2595,-0.15 0.4365,-0.393 0.501,-0.6855 0.2745,-1.257 1.263,-2.244 2.52,-2.52 0.291,-0.0645 0.5355,-0.243 0.684,-0.501 0.15,-0.261 0.1815,-0.5595 0.0915,-0.843 -0.39,-1.224 -0.0285,-2.5755 0.9225,-3.4425 0.2205,-0.2025 0.3435,-0.477 0.3435,-0.7755 0,-0.2985 -0.1215,-0.5745 -0.3435,-0.777 C 48.832,40.8555 48.4705,39.504 48.8605,38.28 48.952,37.9965 48.919,37.6935 48.769,37.437 48.619,37.176 48.376,37.0005 48.085,36.936 46.828,36.66 45.8395,35.67 45.565,34.416 45.5005,34.1235 45.3235,33.8805 45.064,33.7305 44.8,33.5775 44.4985,33.546 44.2195,33.639 c -1.227,0.39 -2.5755,0.027 -3.4425,-0.9225 -0.402,-0.4425 -1.1505,-0.4455 -1.5525,0 -0.867,0.9495 -2.2155,1.3125 -3.4425,0.9225 -0.285,-0.093 -0.5865,-0.0585 -0.843,0.0915 -0.2595,0.15 -0.438,0.393 -0.5025,0.6855 -0.2745,1.257 -1.263,2.244 -2.5185,2.52 -0.2925,0.0645 -0.5355,0.24 -0.6855,0.501 -0.15,0.258 -0.1815,0.5595 -0.0915,0.843 0.39,1.224 0.0285,2.5755 -0.9225,3.4425 -0.2205,0.2025 -0.3435,0.477 -0.3435,0.777 0,0.2985 0.1215,0.5745 0.3435,0.7755 0.951,0.867 1.3125,2.2185 0.9225,3.4425 -0.0915,0.2835 -0.0585,0.5835 0.0915,0.843 0.15,0.258 0.393,0.4365 0.6855,0.501 1.2555,0.276 2.244,1.263 2.5185,2.52 0.0645,0.2925 0.243,0.537 0.5025,0.6855 0.258,0.15 0.558,0.1815 0.843,0.0915 0.3255,-0.1065 0.663,-0.156 0.996,-0.156 z"
   id="path857"
   style="stroke-width:1.5"
   sodipodi:nodetypes="scccccsccscccccscccccccsccsccccccccsscccccccccsccccccccccccccccscccccccs" />
</g>
</svg>
